f<svg width="61" height="67" viewBox="0 0 61 67" fill="green" xmlns="http://www.w3.org/2000/svg">
<path d="M30.7452 64.4586C15.4798 64.4586 3.10156 56.5279 3.10156 42.958V42.6877C3.10156 36.1822 7.21125 30.9791 13.4679 27.6004C19.4543 24.3692 22.9927 18.4166 22.1081 12.2429L20.3788 3.02832L26.786 5.47017C38.3257 9.86243 47.9364 17.4859 54.1654 27.1735C56.9042 31.3817 58.3706 36.2907 58.3888 41.3116V42.958C58.3888 47.7557 56.8407 51.85 54.1654 55.1365" stroke="#B29C3F" strokeWidth="4.60727" strokeLinecap="round" strokeLinejoin="round"/>
<path d="M30.7438 64.4586C25.6543 64.4586 21.5293 60.0571 21.5293 54.6297C21.5293 50.3296 24.65 46.8864 27.3959 43.732L30.7438 39.8865L34.0918 43.732C36.8377 46.8895 39.9584 50.3296 39.9584 54.6297C39.9584 60.0571 35.8333 64.4586 30.7438 64.4586Z" stroke="#B29C3F" strokeWidth="4.60727" strokeLinecap="round" strokeLinejoin="round"/>
</svg>
