<svg width="60" height="67" viewBox="0 0 60 67" fill="none" xmlns="http://www.w3.org/2000/svg">
<path d="M29.9561 3.23633H55.7568C56.2456 3.23633 56.7143 3.43049 57.0599 3.7761C57.4055 4.12172 57.5997 4.59047 57.5997 5.07923V62.8237C57.5997 63.3124 57.4055 63.7812 57.0599 64.1268C56.7143 64.4724 56.2456 64.6666 55.7568 64.6666H29.9561M29.9561 3.23633H4.15541C3.66664 3.23633 3.19789 3.43049 2.85228 3.7761C2.50666 4.12172 2.3125 4.59047 2.3125 5.07923V62.8237C2.3125 63.3124 2.50666 63.7812 2.85228 64.1268C3.19789 64.4724 3.66664 64.6666 4.15541 64.6666H29.9561M29.9561 3.23633V64.6666" stroke="#B29C3F" strokeWidth="4.60727"/>
</svg>
