<svg width="51" height="62" fill="none" xmlns="http://www.w3.org/2000/svg"><path d="M43.962.267 7.104.237A6.122 6.122 0 0 0 .961 6.378v49.144a6.122 6.122 0 0 0 6.143 6.144h36.858a6.122 6.122 0 0 0 6.143-6.144V6.38c0-3.409-2.733-6.112-6.143-6.112Zm0 55.256H7.104L7.074 6.38h36.888v49.145Z" fill="#B29C3F"/><path d="M13.247 15.594a3.072 3.072 0 1 0 0-6.143 3.072 3.072 0 0 0 0 6.143Zm9.213 0a3.072 3.072 0 1 0 0-6.143 3.072 3.072 0 0 0 0 6.143Zm3.073 36.858c8.478 0 15.358-6.88 15.358-15.358 0-8.477-6.88-15.357-15.358-15.357-8.477 0-15.357 6.88-15.357 15.357 0 8.478 6.88 15.358 15.357 15.358Zm7.25-22.606c3.992 3.993 3.992 10.504 0 14.497-3.994 3.993-10.506 3.993-14.498 0l14.497-14.497Z" fill="#B29C3F"/></svg>