<svg width="65" height="59" fill="none" xmlns="http://www.w3.org/2000/svg"><path d="M12.587 58.02a1.004 1.004 0 0 1-1.44.06c-3.962-3.813-7.337-7.676-9.608-12.39-2.043-4.24-1.98-8.389.771-12.31a11.566 11.566 0 0 1 6.673-4.556 11.533 11.533 0 0 1 8.019.93c5.137 2.622 7.711 8.602 5.643 14.009-1.036 2.706-2.61 5.28-4.32 7.635-1.693 2.327-3.736 4.4-5.738 6.623Zm-.808-21.61a3.716 3.716 0 0 0-2.065.623 3.747 3.747 0 0 0-.599 5.733 3.721 3.721 0 0 0 4.04.85 3.726 3.726 0 0 0 1.685-1.35 3.746 3.746 0 0 0 .656-2.06 3.768 3.768 0 0 0-1.075-2.673 3.743 3.743 0 0 0-2.647-1.122h.005Zm41.274-5.576c-4.539-4.366-8.778-8.806-10.888-14.766-1.692-4.772-.477-8.979 3.174-12.414 3.337-3.14 8.373-3.85 12.564-1.918 4.244 1.958 7.06 6.269 6.702 10.926a16.58 16.58 0 0 1-1.662 5.753c-2.304 4.812-5.89 8.662-9.89 12.42Zm-.032-14.777a3.715 3.715 0 0 0 2.066-.62 3.748 3.748 0 0 0 .604-5.734 3.721 3.721 0 0 0-4.04-.852 3.727 3.727 0 0 0-1.686 1.35 3.744 3.744 0 0 0-.656 2.062 3.765 3.765 0 0 0 1.07 2.67 3.743 3.743 0 0 0 2.642 1.124ZM20.365 57.96c-.6-.005-1.072-.52-1.072-1.12v-1.106c0-.869.704-1.573 1.573-1.573H45.82c3.048 0 5.247-2.07 5.32-4.91a4.955 4.955 0 0 0-1.347-3.633 4.927 4.927 0 0 0-3.545-1.541c-3.61-.048-7.227.035-10.843-.035-4.287-.084-7.953-3.29-8.556-7.355-.656-4.424 1.73-8.454 5.86-9.866a5.28 5.28 0 0 1 1.581-.392c3.074-.027 6.148-.021 9.265-.019a1.872 1.872 0 0 1 1.871 1.872v.315c0 .86-.696 1.556-1.556 1.556-2.73 0-5.462-.018-8.193 0-2.925.025-5.09 2.117-5.149 4.933-.058 2.816 2.116 5.108 5.079 5.158 3.444.059 6.89 0 10.339.02 5.076.02 8.954 3.813 8.992 8.769.038 4.956-3.888 8.915-8.99 8.928-8.528.025-17.054 0-25.582 0Z" fill="#C3B269"/></svg>