<svg width="65" height="59" viewBox="0 0 63 58" fill="none" xmlns="http://www.w3.org/2000/svg"><path d="M11.45 57.795c-4.165-4.025-7.72-8.05-10.065-13.03-1.985-4.215-1.923-8.34.75-12.239a11.235 11.235 0 0 1 6.483-4.53 10.976 10.976 0 0 1 7.79.926c4.991 2.606 7.493 8.552 5.484 13.927-1.007 2.691-2.536 5.25-4.197 7.59-1.835 2.582-4.092 4.848-6.245 7.356Zm-.115-22.256a3.551 3.551 0 0 0-2.007.62 3.695 3.695 0 0 0-1.336 1.656 3.807 3.807 0 0 0-.218 2.139c.134.72.472 1.382.973 1.904.5.523 1.14.882 1.838 1.032.698.15 1.424.086 2.087-.186a3.638 3.638 0 0 0 1.636-1.343 3.784 3.784 0 0 0 .638-2.049 3.821 3.821 0 0 0-.264-1.435 3.746 3.746 0 0 0-.78-1.222 3.635 3.635 0 0 0-1.178-.821 3.558 3.558 0 0 0-1.394-.295h.005Zm40.1-5.544c-4.41-4.341-8.528-8.756-10.579-14.682-1.644-4.743-.463-8.926 3.085-12.342 3.241-3.122 8.134-3.828 12.206-1.907 4.123 1.947 6.86 6.233 6.512 10.864a16.775 16.775 0 0 1-1.615 5.72c-2.239 4.784-5.723 8.612-9.609 12.347Zm-.032-14.692a3.552 3.552 0 0 0 2.008-.616 3.694 3.694 0 0 0 1.339-1.655c.277-.675.354-1.42.22-2.14a3.748 3.748 0 0 0-.972-1.906 3.593 3.593 0 0 0-1.838-1.033 3.531 3.531 0 0 0-2.088.186 3.638 3.638 0 0 0-1.637 1.342 3.784 3.784 0 0 0-.375 3.483c.178.456.443.87.778 1.221.335.35.734.63 1.174.822.44.192.913.292 1.392.296ZM18.635 56.918v-3.73h25.771c2.963 0 5.099-2.058 5.17-4.883a5.034 5.034 0 0 0-.295-1.943 4.936 4.936 0 0 0-1.014-1.668 4.789 4.789 0 0 0-1.57-1.127 4.681 4.681 0 0 0-1.874-.405c-3.508-.048-7.022.035-10.535-.035-4.165-.084-7.727-3.27-8.313-7.312-.637-4.4 1.68-8.406 5.694-9.81a5.037 5.037 0 0 1 1.536-.39c3.582-.033 7.164-.017 10.82-.017v3.72h-1.512c-2.654 0-5.307-.018-7.96 0-2.842.025-4.947 2.105-5.003 4.904-.057 2.8 2.055 5.079 4.934 5.13 3.347.057 6.693 0 10.045.02 4.932.02 8.7 3.79 8.737 8.717.037 4.928-3.778 8.864-8.734 8.877-8.286.025-16.57 0-24.856 0-.282-.003-.563-.026-1.041-.048Z" fill="#fff"/></svg>